<?xml version="1.0" encoding="UTF-8" standalone="no"?>
<!-- Created with Inkscape (http://www.inkscape.org/) -->

<svg
   width="220"
   height="50"
   viewBox="0 0 58.208358 13.229167"
   version="1.1"
   id="svg141"
   xml:space="preserve"
   inkscape:version="1.2.2 (732a01da63, 2022-12-09)"
   sodipodi:docname="shipfinity_logo_long.svg"
   xmlns:inkscape="http://www.inkscape.org/namespaces/inkscape"
   xmlns:sodipodi="http://sodipodi.sourceforge.net/DTD/sodipodi-0.dtd"
   xmlns="http://www.w3.org/2000/svg"
   xmlns:svg="http://www.w3.org/2000/svg"><sodipodi:namedview
     id="namedview143"
     pagecolor="#505050"
     bordercolor="#eeeeee"
     borderopacity="1"
     inkscape:showpageshadow="0"
     inkscape:pageopacity="0"
     inkscape:pagecheckerboard="0"
     inkscape:deskcolor="#505050"
     inkscape:document-units="mm"
     showgrid="false"
     inkscape:zoom="5.6568543"
     inkscape:cx="141.0678"
     inkscape:cy="88.7419"
     inkscape:window-width="2560"
     inkscape:window-height="1387"
     inkscape:window-x="1912"
     inkscape:window-y="-8"
     inkscape:window-maximized="1"
     inkscape:current-layer="g245" /><defs
     id="defs138" /><g
     inkscape:label="Layer 1"
     inkscape:groupmode="layer"
     id="layer1"><g
       id="g245"><g
         id="g882"><g
           id="g874"><path
             d="m 11.261444,4.0029108 a 0.45736438,0.45736438 0 0 1 0.457364,0.4573644 v 0.4573644 h 0.933023 a 1.3720931,1.3720931 0 0 1 1.070233,0.5149923 l 1.354713,1.6922482 a 1.3720931,1.3720931 0 0 1 0.300946,0.8580156 v 1.965752 A 1.3720931,1.3720931 0 0 1 14.00563,11.320741 h -0.457364 a 1.8294578,1.8294578 0 1 1 -3.6589155,0 H 5.3157067 a 1.8294575,1.8294575 0 1 1 -3.658915,0 0.91472876,0.91472876 0 0 1 -0.91472877,-0.914729 V 9.4912833 H 10.804079 V 4.4602752 A 0.45736438,0.45736438 0 0 1 11.261444,4.0029108 Z M 3.4862492,10.406012 a 0.914729,0.914729 0 1 0 0,1.829458 0.914729,0.914729 0 0 0 0,-1.829458 z m 8.2325588,0 a 0.914729,0.914729 0 1 0 0,1.829458 0.914729,0.914729 0 0 0 0,-1.829458 z m 1.58431,0 H 14.00563 A 0.45736438,0.45736438 0 0 0 14.462994,9.9486477 V 7.981981 A 0.45736438,0.45736438 0 0 0 14.362374,7.6965856 L 13.008576,6.0043374 a 0.45736438,0.45736438 0 0 0 -0.356745,-0.171969 h -0.933023 v 3.6589149 a 1.8294575,1.8294575 0 0 1 1.58431,0.9147287 z"
             id="path2"
             style="fill:#e3e3e3;fill-opacity:1;stroke-width:0.914729" /><text
             xml:space="preserve"
             style="font-size:12.8124px;fill:#e3e3e3;fill-opacity:1;stroke:none;stroke-width:0.854165"
             x="3.8646555"
             y="4.1567855"
             id="text896"
             inkscape:transform-center-x="-0.08136448"
             inkscape:transform-center-y="0.027825346"
             transform="rotate(40.681239)"><tspan
               sodipodi:role="line"
               id="tspan894"
               x="3.8646555"
               y="4.1567855"
               style="font-style:normal;font-variant:normal;font-weight:normal;font-stretch:normal;font-family:Righteous;-inkscape-font-specification:Righteous;fill:#e3e3e3;fill-opacity:1;stroke-width:0.854165">S</tspan></text></g><text
           xml:space="preserve"
           style="font-size:10.9767px;font-family:Righteous;-inkscape-font-specification:Righteous;fill:#e3e3e3;stroke-width:0.731783"
           x="15.367606"
           y="10.432216"
           id="text368"><tspan
             sodipodi:role="line"
             id="tspan366"
             x="15.367606"
             y="10.432216"
             style="stroke-width:0.731783">hipfinity</tspan></text></g></g></g></svg>
